<svg version="1.1" viewBox="0.0 0.0 960.0 960.0" fill="none" stroke="none" stroke-linecap="square" stroke-miterlimit="10" xmlns:xlink="http://www.w3.org/1999/xlink" xmlns="http://www.w3.org/2000/svg"><clipPath id="p.0"><path d="m0 0l960.0 0l0 960.0l-960.0 0l0 -960.0z" clip-rule="nonzero"/></clipPath><g clip-path="url(#p.0)"><path fill="#000000" fill-opacity="0.0" d="m0 0l960.0 0l0 960.0l-960.0 0z" fill-rule="evenodd"/><path fill="#000000" fill-opacity="0.0" d="m-126.58268 46.075108l1213.1653 0l0 760.1575l-1213.1653 0z" fill-rule="evenodd"/><path fill="#3366cc" d="m437.03934 607.9976q-18.75 7.546875 -38.8125 11.1875q-20.046875 3.65625 -41.921875 3.65625q-31.515625 0 -56.515625 -8.59375q-25.0 -8.59375 -42.453125 -25.515625q-17.4375 -16.9375 -26.6875 -41.9375q-9.234375 -25.0 -9.234375 -57.81253q0 -31.765625 10.015625 -57.546875q10.03125 -25.78125 28.25 -44.0q18.234375 -18.234375 43.890625 -28.125q25.65625 -9.90625 57.15625 -9.90625q25.78125 0 43.359375 2.734375q17.578125 2.734375 31.640625 6.90625l0 61.71875q-16.140625 -8.078125 -35.03125 -12.5q-18.875 -4.4375 -35.796875 -4.4375q-17.703125 0 -31.765625 6.0q-14.0625 5.984375 -23.703125 16.671875q-9.640625 10.671875 -14.71875 25.90625q-5.078125 15.234375 -5.078125 33.453125q0 19.015625 5.46875 34.12503q5.46875 15.09375 15.5 25.640625q10.03125 10.546875 24.09375 16.15625q14.0625 5.59375 31.25 5.59375q8.328125 0 17.5625 -1.171875q9.25 -1.171875 18.5 -3.375q9.25 -2.21875 18.234375 -5.078125q8.984375 -2.875 16.796875 -6.265625l0 56.515625zm236.97629 10.15625l0 -172.39066q0 -43.5 -32.296875 -43.5q-16.140625 0 -30.859375 13.03125q-14.71875 13.015625 -31.125 35.40625l0 167.45316l-63.53125 0l0 -367.96878l63.53125 0l0 90.625l-3.125 47.921875q8.078125 -9.640625 16.40625 -17.3125q8.34375 -7.6875 17.96875 -12.890625q9.640625 -5.21875 20.828125 -7.953125q11.203125 -2.734375 24.75 -2.734375q20.3125 0 35.40625 6.640625q15.109375 6.640625 25.265625 18.75q10.15625 12.109375 15.234375 29.171875q5.078125 17.046875 5.078125 38.140625l0 177.6094l-63.53125 0z" fill-rule="nonzero"/><path fill="#000000" fill-opacity="0.0" d="m-540.70807 84.24834l1213.1653 0l0 683.81104l-1213.1653 0z" fill-rule="evenodd"/><path fill="#000000" d="m-1.3166372 721.5445l0 -483.07812l136.98438 0l0 49.48436l-78.390625 0l0 384.1094l78.390625 0l0 49.484375l-136.98438 0z" fill-rule="nonzero"/><path fill="#000000" fill-opacity="0.0" d="m292.90552 84.24834l1213.1654 0l0 683.81104l-1213.1654 0z" fill-rule="evenodd"/><path fill="#000000" d="m821.62506 721.5445l0 -49.484375l77.859375 0l0 -384.1094l-77.859375 0l0 -49.48436l136.45312 0l0 483.07812l-136.45312 0z" fill-rule="nonzero"/></g></svg>